<svg xmlns="http://www.w3.org/2000/svg" shape-rendering="geometricPrecision" text-rendering="geometricPrecision" image-rendering="optimizeQuality" fill-rule="evenodd" clip-rule="evenodd" viewBox="0 0 512 506.49"><path fill="#DC143C" fill-rule="nonzero" d="m371.06 415.61-43.25 11.52 6.23-46.41 37.02 34.89zm6.76-177.5c36.98 0 70.56 15.04 94.83 39.35C496.96 301.7 512 335.25 512 372.31c0 37.02-15.02 70.61-39.3 94.88l-.68.64c-24.23 23.88-57.5 38.66-94.2 38.66-37.06 0-70.61-15.04-94.88-39.31l-.64-.69c-23.9-24.24-38.68-57.53-38.68-94.18 0-37.06 15.04-70.61 39.32-94.89 24.27-24.27 57.85-39.31 94.88-39.31zm78.74 55.41c-20.09-20.11-47.96-32.58-78.74-32.58-30.75 0-58.61 12.47-78.75 32.62-20.15 20.14-32.62 48-32.62 78.75 0 30.5 12.25 58.14 32.02 78.19l.6.55c20.14 20.14 48 32.61 78.75 32.61 30.48 0 58.12-12.25 78.21-32.02l.54-.58c20.15-20.15 32.61-48 32.61-78.75s-12.48-58.61-32.62-78.79zM294.24 17.11C294.24 7.69 303.52 0 315.1 0c11.57 0 20.87 7.64 20.87 17.11v74.85c0 9.42-9.3 17.11-20.87 17.11-11.58 0-20.86-7.65-20.86-17.11V17.11zM56.8 242.28c-1.17 0-2.23-5.2-2.23-11.57 0-6.38.92-11.53 2.23-11.53h56.94c1.18 0 2.24 5.2 2.24 11.53 0 6.39-.92 11.57-2.24 11.57H56.8zm90.77 0c-1.17 0-2.23-5.2-2.23-11.57 0-6.38.92-11.53 2.23-11.53h56.94c1.18 0 2.24 5.2 2.24 11.53 0 6.39-.92 11.57-2.24 11.57h-56.94zm90.77 0c-1.16 0-2.22-5.2-2.22-11.57 0-6.38.92-11.53 2.22-11.53h56.94c1.19 0 2.25 5.15 2.25 11.49-5.7 3.55-11.2 7.44-16.43 11.61h-42.76zm-181.4 66.24c-1.18 0-2.24-5.2-2.24-11.57 0-6.38.93-11.58 2.24-11.58h56.94c1.18 0 2.22 5.2 2.22 11.58 0 6.37-.91 11.57-2.22 11.57H56.94zm90.77 0c-1.18 0-2.24-5.2-2.24-11.57 0-6.38.93-11.58 2.24-11.58h56.94c1.18 0 2.23 5.2 2.23 11.58 0 6.37-.92 11.57-2.23 11.57h-56.94zM57.06 374.8c-1.18 0-2.24-5.2-2.24-11.59 0-6.36.94-11.56 2.24-11.56H114c1.19 0 2.24 5.2 2.24 11.56 0 6.39-.93 11.59-2.24 11.59H57.06zm90.78 0c-1.19 0-2.25-5.2-2.25-11.59 0-6.36.94-11.56 2.25-11.56h56.94c1.18 0 2.24 5.2 2.24 11.56 0 6.39-.94 11.59-2.24 11.59h-56.94zM106.83 17.11C106.83 7.69 116.1 0 127.69 0c11.57 0 20.86 7.64 20.86 17.11v74.85c0 9.42-9.34 17.11-20.86 17.11-11.59 0-20.86-7.65-20.86-17.11V17.11zM22.97 163.64h397.39V77.46c0-2.94-1.19-5.53-3.09-7.43-1.9-1.9-4.59-3.08-7.42-3.08h-38.1c-6.39 0-11.59-5.2-11.59-11.57 0-6.38 5.2-11.58 11.59-11.58h38.1c9.32 0 17.7 3.77 23.82 9.88 6.12 6.14 9.88 14.5 9.88 23.83v136.81c-7.61-2.62-15.41-4.73-23.44-6.29v-21.38h.25H22.97v223.17c0 2.94 1.18 5.52 3.08 7.42 1.91 1.9 4.61 3.08 7.44 3.08h188.85c2.16 8.02 4.86 15.84 8.11 23.36H33.71c-9.3 0-17.7-3.75-23.84-9.89C3.75 427.72 0 419.36 0 410.02V77.55c0-9.29 3.75-17.7 9.87-23.82 6.14-6.13 14.5-9.89 23.84-9.89h40.67c6.38 0 11.57 5.2 11.57 11.57C85.95 61.8 80.76 67 74.38 67H33.71c-2.96 0-5.54 1.18-7.44 3.08-1.9 1.9-3.09 4.59-3.09 7.43v86.16h-.21v-.03zm158.95-96.69c-6.39 0-11.57-5.2-11.57-11.57 0-6.38 5.18-11.58 11.57-11.58h77.55c6.39 0 11.57 5.2 11.57 11.58 0 6.37-5.18 11.57-11.57 11.57h-77.55zm161.66 303.24 45.37-51.33c.72-.84 1.78-1.34 2.85-1.36.69-.01 1.37.13 1.98.45l32.94 29.96c.66.59 1.05 1.46 1.06 2.35.02 1-.39 1.98-1.16 2.66l-46.15 52.16-36.95-34.89h.06z"/></svg>